<mxfile host="app.diagrams.net" agent="Mozilla/5.0 (Windows NT 10.0; Win64; x64) AppleWebKit/537.36 (KHTML, like Gecko) Chrome/134.0.0.0 Safari/537.36" version="26.1.3">
  <diagram name="1 oldal" id="UXluAlcKaiXMgL2tnKq0">
    <mxGraphModel dx="2262" dy="715" grid="1" gridSize="10" guides="1" tooltips="1" connect="1" arrows="1" fold="1" page="1" pageScale="1" pageWidth="827" pageHeight="1169" math="0" shadow="0">
      <root>
        <mxCell id="0" />
        <mxCell id="1" parent="0" />
        <mxCell id="b1ukYhjXoJ38tphvU0Hr-2" value="&lt;u&gt;Fkod&lt;/u&gt;" style="ellipse;whiteSpace=wrap;html=1;align=center;" vertex="1" parent="1">
          <mxGeometry x="-800" y="200" width="100" height="40" as="geometry" />
        </mxCell>
        <mxCell id="b1ukYhjXoJ38tphvU0Hr-4" value="Nev" style="ellipse;whiteSpace=wrap;html=1;align=center;" vertex="1" parent="1">
          <mxGeometry x="-800" y="280" width="100" height="40" as="geometry" />
        </mxCell>
        <mxCell id="b1ukYhjXoJ38tphvU0Hr-5" value="Eletkor" style="ellipse;whiteSpace=wrap;html=1;align=center;" vertex="1" parent="1">
          <mxGeometry x="-800" y="360" width="100" height="40" as="geometry" />
        </mxCell>
        <mxCell id="b1ukYhjXoJ38tphvU0Hr-7" value="Vegzettseg" style="ellipse;shape=doubleEllipse;margin=3;whiteSpace=wrap;html=1;align=center;" vertex="1" parent="1">
          <mxGeometry x="-800" y="440" width="100" height="40" as="geometry" />
        </mxCell>
        <mxCell id="b1ukYhjXoJ38tphvU0Hr-8" value="Foszakacs" style="whiteSpace=wrap;html=1;align=center;" vertex="1" parent="1">
          <mxGeometry x="-640" y="320" width="100" height="40" as="geometry" />
        </mxCell>
        <mxCell id="b1ukYhjXoJ38tphvU0Hr-9" value="Etterem" style="whiteSpace=wrap;html=1;align=center;" vertex="1" parent="1">
          <mxGeometry x="-420" y="320" width="100" height="40" as="geometry" />
        </mxCell>
        <mxCell id="b1ukYhjXoJ38tphvU0Hr-16" value="" style="endArrow=none;html=1;rounded=0;" edge="1" parent="1">
          <mxGeometry relative="1" as="geometry">
            <mxPoint x="-700" y="459.52" as="sourcePoint" />
            <mxPoint x="-640" y="360" as="targetPoint" />
          </mxGeometry>
        </mxCell>
        <mxCell id="b1ukYhjXoJ38tphvU0Hr-17" value="" style="endArrow=none;html=1;rounded=0;entryX=0;entryY=0;entryDx=0;entryDy=0;" edge="1" parent="1" target="b1ukYhjXoJ38tphvU0Hr-8">
          <mxGeometry relative="1" as="geometry">
            <mxPoint x="-700" y="219.51999999999998" as="sourcePoint" />
            <mxPoint x="-540" y="219.51999999999998" as="targetPoint" />
          </mxGeometry>
        </mxCell>
        <mxCell id="b1ukYhjXoJ38tphvU0Hr-18" value="" style="endArrow=none;html=1;rounded=0;entryX=0;entryY=0.25;entryDx=0;entryDy=0;" edge="1" parent="1" target="b1ukYhjXoJ38tphvU0Hr-8">
          <mxGeometry relative="1" as="geometry">
            <mxPoint x="-700" y="299.52" as="sourcePoint" />
            <mxPoint x="-540" y="299.52" as="targetPoint" />
          </mxGeometry>
        </mxCell>
        <mxCell id="b1ukYhjXoJ38tphvU0Hr-19" value="" style="endArrow=none;html=1;rounded=0;entryX=0;entryY=0.75;entryDx=0;entryDy=0;" edge="1" parent="1" target="b1ukYhjXoJ38tphvU0Hr-8">
          <mxGeometry relative="1" as="geometry">
            <mxPoint x="-700" y="379.52" as="sourcePoint" />
            <mxPoint x="-540" y="379.52" as="targetPoint" />
          </mxGeometry>
        </mxCell>
        <mxCell id="b1ukYhjXoJ38tphvU0Hr-25" value="" style="endArrow=none;html=1;rounded=0;entryX=0;entryY=0.5;entryDx=0;entryDy=0;" edge="1" parent="1" target="b1ukYhjXoJ38tphvU0Hr-10">
          <mxGeometry relative="1" as="geometry">
            <mxPoint x="-320" y="340" as="sourcePoint" />
            <mxPoint x="-240" y="339.52" as="targetPoint" />
          </mxGeometry>
        </mxCell>
        <mxCell id="b1ukYhjXoJ38tphvU0Hr-26" value="" style="endArrow=none;html=1;rounded=0;entryX=0;entryY=0.5;entryDx=0;entryDy=0;" edge="1" parent="1" source="b1ukYhjXoJ38tphvU0Hr-10" target="b1ukYhjXoJ38tphvU0Hr-11">
          <mxGeometry relative="1" as="geometry">
            <mxPoint x="-270" y="339.52" as="sourcePoint" />
            <mxPoint x="-250" y="270" as="targetPoint" />
          </mxGeometry>
        </mxCell>
        <mxCell id="b1ukYhjXoJ38tphvU0Hr-27" value="&lt;u&gt;Vkod&lt;/u&gt;" style="ellipse;whiteSpace=wrap;html=1;align=center;" vertex="1" parent="1">
          <mxGeometry x="-40" y="120" width="100" height="40" as="geometry" />
        </mxCell>
        <mxCell id="b1ukYhjXoJ38tphvU0Hr-31" value="Nev" style="ellipse;whiteSpace=wrap;html=1;align=center;" vertex="1" parent="1">
          <mxGeometry x="-40" y="200" width="100" height="40" as="geometry" />
        </mxCell>
        <mxCell id="b1ukYhjXoJ38tphvU0Hr-32" value="Eletkor" style="ellipse;whiteSpace=wrap;html=1;align=center;" vertex="1" parent="1">
          <mxGeometry x="-40" y="280" width="100" height="40" as="geometry" />
        </mxCell>
        <mxCell id="b1ukYhjXoJ38tphvU0Hr-33" value="Cim" style="ellipse;whiteSpace=wrap;html=1;align=center;" vertex="1" parent="1">
          <mxGeometry x="-40" y="360" width="100" height="40" as="geometry" />
        </mxCell>
        <mxCell id="b1ukYhjXoJ38tphvU0Hr-35" value="" style="endArrow=none;html=1;rounded=0;entryX=0;entryY=0.5;entryDx=0;entryDy=0;" edge="1" parent="1" target="b1ukYhjXoJ38tphvU0Hr-27">
          <mxGeometry relative="1" as="geometry">
            <mxPoint x="-140" y="339.52" as="sourcePoint" />
            <mxPoint x="20" y="339.52" as="targetPoint" />
          </mxGeometry>
        </mxCell>
        <mxCell id="b1ukYhjXoJ38tphvU0Hr-36" value="" style="endArrow=none;html=1;rounded=0;entryX=0;entryY=0.5;entryDx=0;entryDy=0;" edge="1" parent="1" target="b1ukYhjXoJ38tphvU0Hr-31">
          <mxGeometry relative="1" as="geometry">
            <mxPoint x="-140" y="339.52" as="sourcePoint" />
            <mxPoint x="20" y="339.52" as="targetPoint" />
          </mxGeometry>
        </mxCell>
        <mxCell id="b1ukYhjXoJ38tphvU0Hr-37" value="" style="endArrow=none;html=1;rounded=0;entryX=0;entryY=0.5;entryDx=0;entryDy=0;" edge="1" parent="1" target="b1ukYhjXoJ38tphvU0Hr-32">
          <mxGeometry relative="1" as="geometry">
            <mxPoint x="-140" y="339.52" as="sourcePoint" />
            <mxPoint x="20" y="339.52" as="targetPoint" />
          </mxGeometry>
        </mxCell>
        <mxCell id="b1ukYhjXoJ38tphvU0Hr-38" value="" style="endArrow=none;html=1;rounded=0;entryX=0;entryY=0.5;entryDx=0;entryDy=0;" edge="1" parent="1" source="b1ukYhjXoJ38tphvU0Hr-11" target="b1ukYhjXoJ38tphvU0Hr-33">
          <mxGeometry relative="1" as="geometry">
            <mxPoint x="-140" y="339.52" as="sourcePoint" />
            <mxPoint x="20" y="339.52" as="targetPoint" />
          </mxGeometry>
        </mxCell>
        <mxCell id="b1ukYhjXoJ38tphvU0Hr-41" value="" style="endArrow=none;html=1;rounded=0;entryX=0;entryY=0.5;entryDx=0;entryDy=0;" edge="1" parent="1" target="b1ukYhjXoJ38tphvU0Hr-11">
          <mxGeometry relative="1" as="geometry">
            <mxPoint x="-140" y="339.52" as="sourcePoint" />
            <mxPoint x="-40" y="380" as="targetPoint" />
          </mxGeometry>
        </mxCell>
        <mxCell id="b1ukYhjXoJ38tphvU0Hr-11" value="Vendeg" style="whiteSpace=wrap;html=1;align=center;" vertex="1" parent="1">
          <mxGeometry x="-180" y="320" width="100" height="40" as="geometry" />
        </mxCell>
        <mxCell id="b1ukYhjXoJ38tphvU0Hr-42" value="" style="endArrow=none;html=1;rounded=0;entryX=0;entryY=0.5;entryDx=0;entryDy=0;" edge="1" parent="1" target="b1ukYhjXoJ38tphvU0Hr-10">
          <mxGeometry relative="1" as="geometry">
            <mxPoint x="-270" y="339.52" as="sourcePoint" />
            <mxPoint x="-180" y="340" as="targetPoint" />
          </mxGeometry>
        </mxCell>
        <mxCell id="b1ukYhjXoJ38tphvU0Hr-10" value="Rendeles" style="shape=rhombus;perimeter=rhombusPerimeter;whiteSpace=wrap;html=1;align=center;" vertex="1" parent="1">
          <mxGeometry x="-290" y="310" width="90" height="60" as="geometry" />
        </mxCell>
        <mxCell id="b1ukYhjXoJ38tphvU0Hr-104" value="" style="edgeStyle=orthogonalEdgeStyle;rounded=0;orthogonalLoop=1;jettySize=auto;html=1;" edge="1" parent="1" source="b1ukYhjXoJ38tphvU0Hr-43" target="b1ukYhjXoJ38tphvU0Hr-8">
          <mxGeometry relative="1" as="geometry" />
        </mxCell>
        <mxCell id="b1ukYhjXoJ38tphvU0Hr-43" value="E-F" style="shape=rhombus;perimeter=rhombusPerimeter;whiteSpace=wrap;html=1;align=center;" vertex="1" parent="1">
          <mxGeometry x="-520" y="320" width="70" height="40" as="geometry" />
        </mxCell>
        <mxCell id="b1ukYhjXoJ38tphvU0Hr-44" value="" style="endArrow=none;html=1;rounded=0;" edge="1" parent="1">
          <mxGeometry relative="1" as="geometry">
            <mxPoint x="-540" y="339.52" as="sourcePoint" />
            <mxPoint x="-520" y="340" as="targetPoint" />
          </mxGeometry>
        </mxCell>
        <mxCell id="b1ukYhjXoJ38tphvU0Hr-46" value="E-Sz" style="shape=rhombus;perimeter=rhombusPerimeter;whiteSpace=wrap;html=1;align=center;" vertex="1" parent="1">
          <mxGeometry x="-560" y="440" width="70" height="40" as="geometry" />
        </mxCell>
        <mxCell id="b1ukYhjXoJ38tphvU0Hr-47" value="E-Gy" style="shape=rhombus;perimeter=rhombusPerimeter;whiteSpace=wrap;html=1;align=center;" vertex="1" parent="1">
          <mxGeometry x="-270" y="440" width="70" height="40" as="geometry" />
        </mxCell>
        <mxCell id="b1ukYhjXoJ38tphvU0Hr-48" value="" style="endArrow=none;html=1;rounded=0;entryX=0.5;entryY=1;entryDx=0;entryDy=0;exitX=0.5;exitY=0;exitDx=0;exitDy=0;" edge="1" parent="1" source="b1ukYhjXoJ38tphvU0Hr-46" target="b1ukYhjXoJ38tphvU0Hr-9">
          <mxGeometry relative="1" as="geometry">
            <mxPoint x="-580" y="440" as="sourcePoint" />
            <mxPoint x="-420" y="440" as="targetPoint" />
          </mxGeometry>
        </mxCell>
        <mxCell id="b1ukYhjXoJ38tphvU0Hr-49" value="" style="endArrow=none;html=1;rounded=0;entryX=0.5;entryY=0;entryDx=0;entryDy=0;" edge="1" parent="1" target="b1ukYhjXoJ38tphvU0Hr-47">
          <mxGeometry relative="1" as="geometry">
            <mxPoint x="-370" y="360" as="sourcePoint" />
            <mxPoint x="-210" y="360" as="targetPoint" />
          </mxGeometry>
        </mxCell>
        <mxCell id="b1ukYhjXoJ38tphvU0Hr-50" value="" style="endArrow=none;html=1;rounded=0;" edge="1" parent="1">
          <mxGeometry relative="1" as="geometry">
            <mxPoint x="-525.48" y="480" as="sourcePoint" />
            <mxPoint x="-525.48" y="520" as="targetPoint" />
          </mxGeometry>
        </mxCell>
        <mxCell id="b1ukYhjXoJ38tphvU0Hr-51" value="Szakacs" style="whiteSpace=wrap;html=1;align=center;" vertex="1" parent="1">
          <mxGeometry x="-575" y="520" width="100" height="40" as="geometry" />
        </mxCell>
        <mxCell id="b1ukYhjXoJ38tphvU0Hr-52" value="" style="endArrow=none;html=1;rounded=0;exitX=0;exitY=0.5;exitDx=0;exitDy=0;" edge="1" parent="1" source="b1ukYhjXoJ38tphvU0Hr-51" target="b1ukYhjXoJ38tphvU0Hr-53">
          <mxGeometry relative="1" as="geometry">
            <mxPoint x="-735" y="539.52" as="sourcePoint" />
            <mxPoint x="-575" y="539.52" as="targetPoint" />
          </mxGeometry>
        </mxCell>
        <mxCell id="b1ukYhjXoJ38tphvU0Hr-53" value="&lt;u&gt;Szkod&lt;/u&gt;" style="ellipse;whiteSpace=wrap;html=1;align=center;" vertex="1" parent="1">
          <mxGeometry x="-760" y="619.9999999999999" width="100" height="40" as="geometry" />
        </mxCell>
        <mxCell id="b1ukYhjXoJ38tphvU0Hr-54" value="Nev" style="ellipse;whiteSpace=wrap;html=1;align=center;" vertex="1" parent="1">
          <mxGeometry x="-210" y="660" width="100" height="40" as="geometry" />
        </mxCell>
        <mxCell id="b1ukYhjXoJ38tphvU0Hr-55" value="Nev" style="ellipse;whiteSpace=wrap;html=1;align=center;" vertex="1" parent="1">
          <mxGeometry x="-675" y="650" width="100" height="40" as="geometry" />
        </mxCell>
        <mxCell id="b1ukYhjXoJ38tphvU0Hr-56" value="Reszleg" style="ellipse;whiteSpace=wrap;html=1;align=center;" vertex="1" parent="1">
          <mxGeometry x="-560" y="650" width="100" height="40" as="geometry" />
        </mxCell>
        <mxCell id="b1ukYhjXoJ38tphvU0Hr-57" value="" style="endArrow=none;html=1;rounded=0;entryX=0.5;entryY=0;entryDx=0;entryDy=0;" edge="1" parent="1" target="b1ukYhjXoJ38tphvU0Hr-55">
          <mxGeometry relative="1" as="geometry">
            <mxPoint x="-550" y="560" as="sourcePoint" />
            <mxPoint x="-390" y="560" as="targetPoint" />
          </mxGeometry>
        </mxCell>
        <mxCell id="b1ukYhjXoJ38tphvU0Hr-58" value="" style="endArrow=none;html=1;rounded=0;entryX=0.5;entryY=0;entryDx=0;entryDy=0;" edge="1" parent="1" target="b1ukYhjXoJ38tphvU0Hr-56">
          <mxGeometry relative="1" as="geometry">
            <mxPoint x="-520" y="560" as="sourcePoint" />
            <mxPoint x="-360" y="560" as="targetPoint" />
          </mxGeometry>
        </mxCell>
        <mxCell id="b1ukYhjXoJ38tphvU0Hr-59" value="Vegzettseg" style="ellipse;shape=doubleEllipse;margin=3;whiteSpace=wrap;html=1;align=center;" vertex="1" parent="1">
          <mxGeometry x="-430" y="630" width="100" height="40" as="geometry" />
        </mxCell>
        <mxCell id="b1ukYhjXoJ38tphvU0Hr-60" value="" style="endArrow=none;html=1;rounded=0;entryX=0.354;entryY=-0.053;entryDx=0;entryDy=0;entryPerimeter=0;" edge="1" parent="1" target="b1ukYhjXoJ38tphvU0Hr-59">
          <mxGeometry relative="1" as="geometry">
            <mxPoint x="-480" y="560" as="sourcePoint" />
            <mxPoint x="-320" y="560" as="targetPoint" />
          </mxGeometry>
        </mxCell>
        <mxCell id="b1ukYhjXoJ38tphvU0Hr-61" value="Gyakornok" style="whiteSpace=wrap;html=1;align=center;" vertex="1" parent="1">
          <mxGeometry x="-285" y="520" width="100" height="40" as="geometry" />
        </mxCell>
        <mxCell id="b1ukYhjXoJ38tphvU0Hr-62" value="" style="endArrow=none;html=1;rounded=0;exitX=0.5;exitY=0;exitDx=0;exitDy=0;entryX=0.5;entryY=1;entryDx=0;entryDy=0;" edge="1" parent="1" source="b1ukYhjXoJ38tphvU0Hr-61" target="b1ukYhjXoJ38tphvU0Hr-47">
          <mxGeometry relative="1" as="geometry">
            <mxPoint x="-390" y="480" as="sourcePoint" />
            <mxPoint x="-230" y="480" as="targetPoint" />
            <Array as="points" />
          </mxGeometry>
        </mxCell>
        <mxCell id="b1ukYhjXoJ38tphvU0Hr-63" value="&lt;u&gt;Gykod&lt;/u&gt;" style="ellipse;whiteSpace=wrap;html=1;align=center;" vertex="1" parent="1">
          <mxGeometry x="-320" y="660" width="100" height="40" as="geometry" />
        </mxCell>
        <mxCell id="b1ukYhjXoJ38tphvU0Hr-64" value="" style="endArrow=none;html=1;rounded=0;exitX=0.5;exitY=0;exitDx=0;exitDy=0;" edge="1" parent="1" source="b1ukYhjXoJ38tphvU0Hr-63">
          <mxGeometry relative="1" as="geometry">
            <mxPoint x="-413" y="560" as="sourcePoint" />
            <mxPoint x="-253" y="560" as="targetPoint" />
          </mxGeometry>
        </mxCell>
        <mxCell id="b1ukYhjXoJ38tphvU0Hr-65" value="Gyakorlat" style="ellipse;whiteSpace=wrap;html=1;align=center;" vertex="1" parent="1">
          <mxGeometry x="-100" y="640" width="100" height="40" as="geometry" />
        </mxCell>
        <mxCell id="b1ukYhjXoJ38tphvU0Hr-66" value="" style="endArrow=none;html=1;rounded=0;entryX=0.5;entryY=1;entryDx=0;entryDy=0;exitX=0.343;exitY=0.094;exitDx=0;exitDy=0;exitPerimeter=0;" edge="1" parent="1" source="b1ukYhjXoJ38tphvU0Hr-54" target="b1ukYhjXoJ38tphvU0Hr-61">
          <mxGeometry relative="1" as="geometry">
            <mxPoint x="-420" y="530" as="sourcePoint" />
            <mxPoint x="-260" y="530" as="targetPoint" />
          </mxGeometry>
        </mxCell>
        <mxCell id="b1ukYhjXoJ38tphvU0Hr-67" value="" style="endArrow=none;html=1;rounded=0;exitX=0;exitY=0;exitDx=0;exitDy=0;" edge="1" parent="1" source="b1ukYhjXoJ38tphvU0Hr-65">
          <mxGeometry relative="1" as="geometry">
            <mxPoint x="-360" y="560" as="sourcePoint" />
            <mxPoint x="-200" y="560" as="targetPoint" />
          </mxGeometry>
        </mxCell>
        <mxCell id="b1ukYhjXoJ38tphvU0Hr-68" value="" style="endArrow=none;html=1;rounded=0;" edge="1" parent="1">
          <mxGeometry relative="1" as="geometry">
            <mxPoint x="-150" y="750" as="sourcePoint" />
            <mxPoint x="-50" y="680" as="targetPoint" />
          </mxGeometry>
        </mxCell>
        <mxCell id="b1ukYhjXoJ38tphvU0Hr-69" value="Kezdete" style="ellipse;whiteSpace=wrap;html=1;align=center;" vertex="1" parent="1">
          <mxGeometry x="-200" y="750" width="100" height="40" as="geometry" />
        </mxCell>
        <mxCell id="b1ukYhjXoJ38tphvU0Hr-70" value="Idotartama" style="ellipse;whiteSpace=wrap;html=1;align=center;" vertex="1" parent="1">
          <mxGeometry x="-60" y="750" width="100" height="40" as="geometry" />
        </mxCell>
        <mxCell id="b1ukYhjXoJ38tphvU0Hr-71" value="" style="endArrow=none;html=1;rounded=0;exitX=0.5;exitY=0;exitDx=0;exitDy=0;" edge="1" parent="1" source="b1ukYhjXoJ38tphvU0Hr-70">
          <mxGeometry relative="1" as="geometry">
            <mxPoint x="-210" y="679.05" as="sourcePoint" />
            <mxPoint x="-50" y="679.05" as="targetPoint" />
          </mxGeometry>
        </mxCell>
        <mxCell id="b1ukYhjXoJ38tphvU0Hr-72" value="Muszak" style="ellipse;shape=doubleEllipse;margin=3;whiteSpace=wrap;html=1;align=center;" vertex="1" parent="1">
          <mxGeometry x="30" y="610" width="100" height="40" as="geometry" />
        </mxCell>
        <mxCell id="b1ukYhjXoJ38tphvU0Hr-73" value="" style="endArrow=none;html=1;rounded=0;entryX=0;entryY=0;entryDx=0;entryDy=0;" edge="1" parent="1" target="b1ukYhjXoJ38tphvU0Hr-72">
          <mxGeometry relative="1" as="geometry">
            <mxPoint x="-185" y="550" as="sourcePoint" />
            <mxPoint x="-25" y="550" as="targetPoint" />
          </mxGeometry>
        </mxCell>
        <mxCell id="b1ukYhjXoJ38tphvU0Hr-74" value="" style="endArrow=none;html=1;rounded=0;exitX=0.5;exitY=0;exitDx=0;exitDy=0;entryX=0.719;entryY=0.992;entryDx=0;entryDy=0;entryPerimeter=0;" edge="1" parent="1" source="b1ukYhjXoJ38tphvU0Hr-9" target="b1ukYhjXoJ38tphvU0Hr-76">
          <mxGeometry relative="1" as="geometry">
            <mxPoint x="-410" y="320" as="sourcePoint" />
            <mxPoint x="-443.1434262475793" y="238.82915153195916" as="targetPoint" />
          </mxGeometry>
        </mxCell>
        <mxCell id="b1ukYhjXoJ38tphvU0Hr-76" value="Csillag" style="ellipse;whiteSpace=wrap;html=1;align=center;" vertex="1" parent="1">
          <mxGeometry x="-600" y="210" width="70" height="40" as="geometry" />
        </mxCell>
        <mxCell id="b1ukYhjXoJ38tphvU0Hr-79" value="Nev" style="ellipse;whiteSpace=wrap;html=1;align=center;" vertex="1" parent="1">
          <mxGeometry x="-440" y="210" width="70" height="40" as="geometry" />
        </mxCell>
        <mxCell id="b1ukYhjXoJ38tphvU0Hr-80" value="Cim" style="ellipse;whiteSpace=wrap;html=1;align=center;" vertex="1" parent="1">
          <mxGeometry x="-520" y="210" width="70" height="40" as="geometry" />
        </mxCell>
        <mxCell id="b1ukYhjXoJ38tphvU0Hr-81" value="&lt;u&gt;Ekod&lt;/u&gt;" style="ellipse;whiteSpace=wrap;html=1;align=center;" vertex="1" parent="1">
          <mxGeometry x="-360" y="210" width="70" height="40" as="geometry" />
        </mxCell>
        <mxCell id="b1ukYhjXoJ38tphvU0Hr-82" value="" style="endArrow=none;html=1;rounded=0;entryX=0.5;entryY=0;entryDx=0;entryDy=0;" edge="1" parent="1" target="b1ukYhjXoJ38tphvU0Hr-9">
          <mxGeometry relative="1" as="geometry">
            <mxPoint x="-470" y="250" as="sourcePoint" />
            <mxPoint x="-310" y="250" as="targetPoint" />
          </mxGeometry>
        </mxCell>
        <mxCell id="b1ukYhjXoJ38tphvU0Hr-83" value="Hazszam" style="ellipse;whiteSpace=wrap;html=1;align=center;" vertex="1" parent="1">
          <mxGeometry x="-430" y="100" width="70" height="40" as="geometry" />
        </mxCell>
        <mxCell id="b1ukYhjXoJ38tphvU0Hr-84" value="" style="endArrow=none;html=1;rounded=0;entryX=0.5;entryY=0;entryDx=0;entryDy=0;exitX=0.5;exitY=1;exitDx=0;exitDy=0;" edge="1" parent="1" source="b1ukYhjXoJ38tphvU0Hr-79" target="b1ukYhjXoJ38tphvU0Hr-9">
          <mxGeometry relative="1" as="geometry">
            <mxPoint x="-380" y="250" as="sourcePoint" />
            <mxPoint x="-220" y="250" as="targetPoint" />
          </mxGeometry>
        </mxCell>
        <mxCell id="b1ukYhjXoJ38tphvU0Hr-85" value="Utca" style="ellipse;whiteSpace=wrap;html=1;align=center;" vertex="1" parent="1">
          <mxGeometry x="-520" y="100" width="70" height="40" as="geometry" />
        </mxCell>
        <mxCell id="b1ukYhjXoJ38tphvU0Hr-86" value="" style="endArrow=none;html=1;rounded=0;entryX=0.5;entryY=0;entryDx=0;entryDy=0;exitX=0.5;exitY=1;exitDx=0;exitDy=0;" edge="1" parent="1" source="b1ukYhjXoJ38tphvU0Hr-81" target="b1ukYhjXoJ38tphvU0Hr-9">
          <mxGeometry relative="1" as="geometry">
            <mxPoint x="-285" y="250" as="sourcePoint" />
            <mxPoint x="-125" y="250" as="targetPoint" />
          </mxGeometry>
        </mxCell>
        <mxCell id="b1ukYhjXoJ38tphvU0Hr-87" value="Varos" style="ellipse;whiteSpace=wrap;html=1;align=center;" vertex="1" parent="1">
          <mxGeometry x="-610" y="100" width="70" height="40" as="geometry" />
        </mxCell>
        <mxCell id="b1ukYhjXoJ38tphvU0Hr-88" value="" style="endArrow=none;html=1;rounded=0;entryX=0.5;entryY=0;entryDx=0;entryDy=0;" edge="1" parent="1" target="b1ukYhjXoJ38tphvU0Hr-80">
          <mxGeometry relative="1" as="geometry">
            <mxPoint x="-575" y="139.51999999999998" as="sourcePoint" />
            <mxPoint x="-415" y="139.51999999999998" as="targetPoint" />
          </mxGeometry>
        </mxCell>
        <mxCell id="b1ukYhjXoJ38tphvU0Hr-90" value="" style="endArrow=none;html=1;rounded=0;entryX=0.5;entryY=0;entryDx=0;entryDy=0;" edge="1" parent="1" target="b1ukYhjXoJ38tphvU0Hr-80">
          <mxGeometry relative="1" as="geometry">
            <mxPoint x="-480" y="140" as="sourcePoint" />
            <mxPoint x="-320" y="140" as="targetPoint" />
          </mxGeometry>
        </mxCell>
        <mxCell id="b1ukYhjXoJ38tphvU0Hr-91" value="" style="endArrow=none;html=1;rounded=0;entryX=0.5;entryY=0;entryDx=0;entryDy=0;" edge="1" parent="1" target="b1ukYhjXoJ38tphvU0Hr-80">
          <mxGeometry relative="1" as="geometry">
            <mxPoint x="-405" y="140" as="sourcePoint" />
            <mxPoint x="-245" y="140" as="targetPoint" />
          </mxGeometry>
        </mxCell>
        <mxCell id="b1ukYhjXoJ38tphvU0Hr-92" value="Osszeg" style="shape=rhombus;perimeter=rhombusPerimeter;whiteSpace=wrap;html=1;align=center;" vertex="1" parent="1">
          <mxGeometry x="-270" y="190" width="70" height="40" as="geometry" />
        </mxCell>
        <mxCell id="b1ukYhjXoJ38tphvU0Hr-93" value="Etel" style="shape=rhombus;perimeter=rhombusPerimeter;whiteSpace=wrap;html=1;align=center;" vertex="1" parent="1">
          <mxGeometry x="-185" y="190" width="70" height="40" as="geometry" />
        </mxCell>
        <mxCell id="b1ukYhjXoJ38tphvU0Hr-94" value="" style="endArrow=none;html=1;rounded=0;entryX=0.5;entryY=1;entryDx=0;entryDy=0;exitX=0.5;exitY=0;exitDx=0;exitDy=0;" edge="1" parent="1" source="b1ukYhjXoJ38tphvU0Hr-10" target="b1ukYhjXoJ38tphvU0Hr-92">
          <mxGeometry relative="1" as="geometry">
            <mxPoint x="-390" y="270" as="sourcePoint" />
            <mxPoint x="-230" y="270" as="targetPoint" />
          </mxGeometry>
        </mxCell>
        <mxCell id="b1ukYhjXoJ38tphvU0Hr-95" value="" style="endArrow=none;html=1;rounded=0;entryX=0.5;entryY=1;entryDx=0;entryDy=0;exitX=0.5;exitY=0;exitDx=0;exitDy=0;" edge="1" parent="1" source="b1ukYhjXoJ38tphvU0Hr-10" target="b1ukYhjXoJ38tphvU0Hr-93">
          <mxGeometry relative="1" as="geometry">
            <mxPoint x="-390" y="270" as="sourcePoint" />
            <mxPoint x="-230" y="270" as="targetPoint" />
          </mxGeometry>
        </mxCell>
        <mxCell id="b1ukYhjXoJ38tphvU0Hr-97" value="Hazszam" style="ellipse;whiteSpace=wrap;html=1;align=center;" vertex="1" parent="1">
          <mxGeometry x="120" y="420" width="70" height="40" as="geometry" />
        </mxCell>
        <mxCell id="b1ukYhjXoJ38tphvU0Hr-98" value="Utca" style="ellipse;whiteSpace=wrap;html=1;align=center;" vertex="1" parent="1">
          <mxGeometry x="120" y="360" width="70" height="40" as="geometry" />
        </mxCell>
        <mxCell id="b1ukYhjXoJ38tphvU0Hr-99" value="Varos" style="ellipse;whiteSpace=wrap;html=1;align=center;" vertex="1" parent="1">
          <mxGeometry x="120" y="290" width="70" height="40" as="geometry" />
        </mxCell>
        <mxCell id="b1ukYhjXoJ38tphvU0Hr-100" value="" style="endArrow=none;html=1;rounded=0;entryX=0;entryY=0.5;entryDx=0;entryDy=0;" edge="1" parent="1" target="b1ukYhjXoJ38tphvU0Hr-99">
          <mxGeometry relative="1" as="geometry">
            <mxPoint x="60" y="379.52" as="sourcePoint" />
            <mxPoint x="220" y="379.52" as="targetPoint" />
          </mxGeometry>
        </mxCell>
        <mxCell id="b1ukYhjXoJ38tphvU0Hr-101" value="" style="endArrow=none;html=1;rounded=0;entryX=0;entryY=0.5;entryDx=0;entryDy=0;" edge="1" parent="1" target="b1ukYhjXoJ38tphvU0Hr-98">
          <mxGeometry relative="1" as="geometry">
            <mxPoint x="60" y="379.52" as="sourcePoint" />
            <mxPoint x="220" y="379.52" as="targetPoint" />
          </mxGeometry>
        </mxCell>
        <mxCell id="b1ukYhjXoJ38tphvU0Hr-102" value="" style="endArrow=none;html=1;rounded=0;entryX=0;entryY=0.5;entryDx=0;entryDy=0;" edge="1" parent="1" target="b1ukYhjXoJ38tphvU0Hr-97">
          <mxGeometry relative="1" as="geometry">
            <mxPoint x="60" y="379.52" as="sourcePoint" />
            <mxPoint x="220" y="379.52" as="targetPoint" />
          </mxGeometry>
        </mxCell>
        <mxCell id="b1ukYhjXoJ38tphvU0Hr-103" value="" style="endArrow=classic;html=1;rounded=0;entryX=0;entryY=0.5;entryDx=0;entryDy=0;exitX=1;exitY=0.5;exitDx=0;exitDy=0;" edge="1" parent="1" source="b1ukYhjXoJ38tphvU0Hr-43" target="b1ukYhjXoJ38tphvU0Hr-9">
          <mxGeometry width="50" height="50" relative="1" as="geometry">
            <mxPoint x="-440" y="340" as="sourcePoint" />
            <mxPoint x="-390" y="290" as="targetPoint" />
          </mxGeometry>
        </mxCell>
      </root>
    </mxGraphModel>
  </diagram>
</mxfile>
